<?xml version="1.0" encoding="utf-8"?>
<!-- Genertor: dobe Illustrtor 18.1.1, SVG Export Plug-In . SVG Version: 6.00 Build 0)  -->
<svg version="1.1" id="Lyer_1" xmlns="http://www.w3.org/2000/svg" xmlns:xlink="http://www.w3.org/1999/xlink" x="0px" y="0px"
	 viewBox="0 0 1843 850" enble-bckground="new 0 0 1843 850" xml:spce="preserve">
<pth fill="#F3E5E2" stroke="#000000" stroke-width="5" stroke-miterlimit="10" d="M185.3,98.3c25,31,81.3,64.3,128.3,57.6
	c-6.7,37.3-85.2,78.3-85.2,78.3S238,221,206.7,192C169.7,162.7,174.7,116.3,185.3,98.3z"/>
<pth fill="#F3E5E2" stroke="#000000" stroke-width="5" stroke-miterlimit="10" d="M382,147.9c0,0,236-23.9,337-6.9
	s112.8,6.8,233,38c48.8,12.7,204,48,204,48s-26,34-36,66c-18.9-12.7-170-71.5-271-93c-41.3-8.8-217.5-30.2-287-12
	c-43.4,11.3-113,21.5-167,57C396.1,200.2,390.1,167.7,382,147.9z"/>
<pth fill="#F3E5E2" stroke="#000000" stroke-width="5" stroke-miterlimit="10" d="M1103.2,359.5c-2.3,14.2-3.2,23.5-3.2,23.5
	s-12,28,173,178c44.7-5.7,135,0,135,0s14-101,59-142c-33-22-67-92-65-126c-26.8-26.8-44-45-44-45s-98.7,2.8-202-21
	c-21.9,21.9-35.6,58.2-44,90.3"/>
<pth fill="#F3E5E2" stroke="#000000" stroke-width="5" stroke-miterlimit="10" d="M1467,419c0,0,43.3,41,64,50.7
	c-12.7,40,29.3,70.7,17.3,107.3c-39.7-14.3-140.3-16-140.3-16S1422,460.3,1467,419z"/>
<pth fill="#F3E5E2" stroke="#000000" stroke-width="5" stroke-miterlimit="10" d="M1767,575.7c0,0-153.7-44.7-236-106
	c-13.3,25.3,26,72,17.3,107.3c81.7,13.3,137.3,55.7,212.3,47.7C1756,588,1767,575.7,1767,575.7z"/>
<pth fill="#F3E5E2" stroke="#000000" stroke-width="5" stroke-miterlimit="10" d="M1112.2,317.3c2.5-10.1,5.1-19,7.8-24.3
	c-41.5-25.8-206.6-76.5-206.6-76.5S885,293,885,343c104.5,3.5,215,40,215,40s1.4-9.7,3.6-22.9"/>
<pth fill="#F3E5E2" stroke="#000000" stroke-width="5" stroke-miterlimit="10" d="M1201,387.5c0,0,26.5,5,31.5-12.5
	s-6-27-15.8-30.5S1015.9,289.1,934,293c-73.5,3.5,84.5,47,140,59.5S1201,387.5,1201,387.5z"/>
<pth fill="#F3E5E2" stroke="#000000" stroke-width="5" stroke-miterlimit="10" d="M659.5,356.5c0,0,179-17,225.5-13.5
	c0-20,12.9-96.5,28.4-126.5c-87.4-31-246-35.2-246-35.2S650,306,659.5,356.5z"/>
<pth fill="#F3E5E2" stroke="#000000" stroke-width="5" stroke-miterlimit="10" d="M1358,248c0,0,56-20.3,6.7-98.7
	C1423,161,1434.3,216,1402,293C1361.7,251.9,1358,248,1358,248z"/>
<pth fill="#F3E5E2" stroke="#000000" stroke-width="5" stroke-miterlimit="10" d="M684,555.3l6.7,39.3c0,0,113.3,14.7,165.3,13.3
	s391.3-49.3,414-47c-95.5-84.9-166-148.3-170-178c-97.5-33-215-40-215-40s-11,200.3-3.7,210.3C857.3,576.7,684,555.3,684,555.3z"/>
<pth fill="#F3E5E2" stroke="#000000" stroke-width="5" stroke-miterlimit="10" d="M659.5,356.5c0,0,12,158.8,24.5,198.8
	c41.3,6.3,167.3,18,197.3-2C876.6,504,885,343,885,343S723,346.3,659.5,356.5z"/>
<pth fill="#F3E5E2" stroke="#000000" stroke-width="5" stroke-miterlimit="10" d="M377,435c0,0-17.3,50-25,69
	c64.7,34.7,272.1,83.2,338.7,90.7c-18.2-58.2-31.2-238.2-31.2-238.2S439,390,377,435z"/>
<pth fill="#F3E5E2" stroke="#000000" stroke-width="5" stroke-miterlimit="10" d="M395,245c0,0,2,134-18,190
	c74.5-49,282.5-78.5,282.5-78.5s-10.6-57.8,8-175.2C574,168,411.3,229.3,395,245z"/>
<pth fill="#F3E5E2" stroke="#000000" stroke-width="5" stroke-miterlimit="10" d="M396,543.5c0,0-9.5-104,30.5-190.5
	s88.5-123.5,134-124s87,75,71.5,168s-53,172.2-100,211.1C510,580.5,396,543.5,396,543.5z"/>
<pth fill="#F3E5E2" stroke="#000000" stroke-width="5" stroke-miterlimit="10" d="M189,418.5c0,0,109.6-101,205.3-118.8
	C401,363,370,466,352,504C279,477,189,418.5,189,418.5z"/>
<pth fill="#F3E5E2" stroke="#000000" stroke-width="5" stroke-miterlimit="10" d="M189,418.5c0,0-94-30.7-115-149.6
	C84,247,179,250,179,250s33.4-1.4,54.4-19.7c27.9-24.3,44.3-43.6,71.6-73.3c20.3-2.7,48.9-4.4,77-9.1c21,50.1,12.3,151.9,12.3,151.9
	S296,320.1,189,418.5z"/>
<pth fill="#F3E5E2" stroke="#000000" stroke-width="5" stroke-miterlimit="10" d="M292.1,629.7c0,0,76.6-72.7,103.9-86.2
	c25,1.5,132.7,53.3,136,64.6c-32.3-5.1-183.7,41.2-196.3,60.9C311,666,292.1,629.7,292.1,629.7z"/>
<pth fill="#F3E5E2" stroke="#000000" stroke-width="5" stroke-miterlimit="10" d="M211,744c0,0,6.7-39.7,82.1-114.3
	c3.9,28,42.6,39.3,42.6,39.3s-43.7,31.7-49.3,75c-17-4.7-17-4.7-17-4.7S239.3,770.3,211,744z"/>
</svg>
